<svg width="578" height="53" viewBox="0 0 578 53" fill="none" xmlns="http://www.w3.org/2000/svg">
<path d="M0.115399 52.0254V0.158387H7.35117V22.5701H20.6701V0.158387H27.9059V52.0254H20.6701V27.7568H7.35117V52.0254H0.115399ZM45.6781 52.5377C42.7753 52.5377 40.5341 51.9827 38.9546 50.8728C37.3751 49.7202 36.2652 48.0553 35.6249 45.8782C35.0272 43.6584 34.7284 40.9476 34.7284 37.746V29.2936C34.7284 26.0065 35.0486 23.2744 35.6889 21.0973C36.3293 18.9202 37.4392 17.2766 39.0187 16.1667C40.6408 15.0568 42.8607 14.5019 45.6781 14.5019C48.7944 14.5019 51.0783 15.1422 52.5297 16.4229C54.0238 17.7035 55.0056 19.5605 55.4752 21.9938C55.9448 24.3843 56.1796 27.2658 56.1796 30.6383V33.6478H41.58V41.0757C41.58 42.5698 41.7081 43.7864 41.9642 44.7256C42.263 45.6647 42.7112 46.3691 43.3089 46.8387C43.9492 47.2656 44.7603 47.479 45.7422 47.479C46.7667 47.479 47.5351 47.2442 48.0474 46.7747C48.6023 46.2624 48.9652 45.558 49.1359 44.6616C49.3494 43.7224 49.4561 42.6338 49.4561 41.3959V39.1547H56.1155V40.5634C56.1155 44.2774 55.3258 47.2015 53.7463 49.336C52.1668 51.4704 49.4774 52.5377 45.6781 52.5377ZM41.58 29.9339H49.4561V26.6042C49.4561 25.0674 49.3707 23.7867 49.2 22.7622C49.0292 21.6949 48.6663 20.9052 48.1114 20.3929C47.5991 19.838 46.7667 19.5605 45.6141 19.5605C44.5042 19.5605 43.6504 19.8166 43.0528 20.3289C42.4978 20.8412 42.1136 21.7163 41.9001 22.9543C41.6867 24.1495 41.58 25.8144 41.58 27.9489V29.9339ZM63.0246 52.0254V0.158387H69.8762V52.0254H63.0246ZM77.6573 52.0254V0.158387H84.5088V52.0254H77.6573ZM101.831 52.5377C99.0988 52.5377 96.943 51.9827 95.3635 50.8728C93.784 49.7629 92.6527 48.1834 91.9697 46.1343C91.3294 44.0853 91.0092 41.6733 91.0092 38.8986V28.141C91.0092 25.3662 91.3294 22.9543 91.9697 20.9052C92.6527 18.8561 93.784 17.2766 95.3635 16.1667C96.943 15.0568 99.0988 14.5019 101.831 14.5019C104.563 14.5019 106.697 15.0568 108.234 16.1667C109.814 17.2766 110.924 18.8561 111.564 20.9052C112.247 22.9543 112.588 25.3662 112.588 28.141V38.8986C112.588 41.6733 112.247 44.0853 111.564 46.1343C110.924 48.1834 109.814 49.7629 108.234 50.8728C106.697 51.9827 104.563 52.5377 101.831 52.5377ZM101.831 47.479C103.154 47.479 104.072 47.0948 104.584 46.3264C105.139 45.558 105.459 44.5548 105.545 43.3169C105.673 42.0362 105.737 40.7128 105.737 39.3468V27.7568C105.737 26.348 105.673 25.0247 105.545 23.7867C105.459 22.5487 105.139 21.5455 104.584 20.7771C104.072 19.966 103.154 19.5605 101.831 19.5605C100.507 19.5605 99.5683 19.966 99.0134 20.7771C98.4584 21.5455 98.1169 22.5487 97.9889 23.7867C97.9035 25.0247 97.8608 26.348 97.8608 27.7568V39.3468C97.8608 40.7128 97.9035 42.0362 97.9889 43.3169C98.1169 44.5548 98.4584 45.558 99.0134 46.3264C99.5683 47.0948 100.507 47.479 101.831 47.479ZM126.151 52.0254L117.699 0.158387H123.718L129.289 37.4258L136.268 0.350488H141.391L148.435 37.6179L153.877 0.158387H159.769L151.444 52.0254H146.193L138.958 13.6054L131.658 52.0254H126.151ZM175.056 52.5377C172.324 52.5377 170.169 51.9827 168.589 50.8728C167.01 49.7629 165.878 48.1834 165.195 46.1343C164.555 44.0853 164.235 41.6733 164.235 38.8986V28.141C164.235 25.3662 164.555 22.9543 165.195 20.9052C165.878 18.8561 167.01 17.2766 168.589 16.1667C170.169 15.0568 172.324 14.5019 175.056 14.5019C177.789 14.5019 179.923 15.0568 181.46 16.1667C183.039 17.2766 184.149 18.8561 184.79 20.9052C185.473 22.9543 185.814 25.3662 185.814 28.141V38.8986C185.814 41.6733 185.473 44.0853 184.79 46.1343C184.149 48.1834 183.039 49.7629 181.46 50.8728C179.923 51.9827 177.789 52.5377 175.056 52.5377ZM175.056 47.479C176.38 47.479 177.298 47.0948 177.81 46.3264C178.365 45.558 178.685 44.5548 178.77 43.3169C178.898 42.0362 178.962 40.7128 178.962 39.3468V27.7568C178.962 26.348 178.898 25.0247 178.77 23.7867C178.685 22.5487 178.365 21.5455 177.81 20.7771C177.298 19.966 176.38 19.5605 175.056 19.5605C173.733 19.5605 172.794 19.966 172.239 20.7771C171.684 21.5455 171.343 22.5487 171.214 23.7867C171.129 25.0247 171.086 26.348 171.086 27.7568V39.3468C171.086 40.7128 171.129 42.0362 171.214 43.3169C171.343 44.5548 171.684 45.558 172.239 46.3264C172.794 47.0948 173.733 47.479 175.056 47.479ZM192.269 52.0254V15.0141H199.12V20.2649C200.487 18.0023 201.853 16.4869 203.219 15.7185C204.585 14.9501 205.951 14.5659 207.317 14.5659C207.488 14.5659 207.637 14.5659 207.765 14.5659C207.936 14.5659 208.149 14.5872 208.405 14.6299V22.1859C207.893 21.9724 207.295 21.8017 206.612 21.6736C205.972 21.5028 205.31 21.4175 204.627 21.4175C203.56 21.4175 202.578 21.6736 201.682 22.1859C200.828 22.6554 199.974 23.5946 199.12 25.0033V52.0254H192.269ZM213.29 52.0254V0.158387H220.142V52.0254H213.29ZM235.863 52.5377C232.747 52.5377 230.42 51.4064 228.883 49.1439C227.347 46.8387 226.578 42.954 226.578 37.4898V30.3181C226.578 27.5006 226.813 24.8966 227.283 22.506C227.752 20.0728 228.627 18.1304 229.908 16.679C231.231 15.2276 233.152 14.5019 235.671 14.5019C236.909 14.5019 238.04 14.7793 239.065 15.3343C240.089 15.8892 241.007 16.5723 241.818 17.3834V0.158387H248.67V52.0254H241.818V49.6562C241.007 50.5099 240.111 51.2143 239.129 51.7693C238.19 52.2815 237.101 52.5377 235.863 52.5377ZM237.592 47.1589C238.232 47.1589 238.915 47.0521 239.641 46.8387C240.367 46.5826 241.093 46.2197 241.818 45.7501V21.4815C241.221 21.0546 240.559 20.6917 239.833 20.3929C239.107 20.0514 238.318 19.8807 237.464 19.8807C235.884 19.8807 234.817 20.6491 234.262 22.1859C233.707 23.68 233.43 25.4942 233.43 27.6287V38.0661C233.43 39.7737 233.515 41.3318 233.686 42.7406C233.899 44.1066 234.305 45.1952 234.903 46.0063C235.5 46.7747 236.397 47.1589 237.592 47.1589ZM256.186 52.0254V0.158387H276.229V5.34509H263.422V22.6341H273.347V27.7568H263.422V52.0254H256.186ZM280.815 52.0254V15.0141H287.667V20.2649C289.033 18.0023 290.399 16.4869 291.765 15.7185C293.131 14.9501 294.497 14.5659 295.863 14.5659C296.034 14.5659 296.183 14.5659 296.311 14.5659C296.482 14.5659 296.695 14.5872 296.951 14.6299V22.1859C296.439 21.9724 295.842 21.8017 295.158 21.6736C294.518 21.5028 293.856 21.4175 293.173 21.4175C292.106 21.4175 291.124 21.6736 290.228 22.1859C289.374 22.6554 288.52 23.5946 287.667 25.0033V52.0254H280.815ZM311.377 52.5377C308.645 52.5377 306.49 51.9827 304.91 50.8728C303.331 49.7629 302.199 48.1834 301.516 46.1343C300.876 44.0853 300.556 41.6733 300.556 38.8986V28.141C300.556 25.3662 300.876 22.9543 301.516 20.9052C302.199 18.8561 303.331 17.2766 304.91 16.1667C306.49 15.0568 308.645 14.5019 311.377 14.5019C314.11 14.5019 316.244 15.0568 317.781 16.1667C319.36 17.2766 320.47 18.8561 321.111 20.9052C321.794 22.9543 322.135 25.3662 322.135 28.141V38.8986C322.135 41.6733 321.794 44.0853 321.111 46.1343C320.47 48.1834 319.36 49.7629 317.781 50.8728C316.244 51.9827 314.11 52.5377 311.377 52.5377ZM311.377 47.479C312.701 47.479 313.619 47.0948 314.131 46.3264C314.686 45.558 315.006 44.5548 315.091 43.3169C315.219 42.0362 315.283 40.7128 315.283 39.3468V27.7568C315.283 26.348 315.219 25.0247 315.091 23.7867C315.006 22.5487 314.686 21.5455 314.131 20.7771C313.619 19.966 312.701 19.5605 311.377 19.5605C310.054 19.5605 309.115 19.966 308.56 20.7771C308.005 21.5455 307.664 22.5487 307.535 23.7867C307.45 25.0247 307.407 26.348 307.407 27.7568V39.3468C307.407 40.7128 307.45 42.0362 307.535 43.3169C307.664 44.5548 308.005 45.558 308.56 46.3264C309.115 47.0948 310.054 47.479 311.377 47.479ZM328.398 52.0254V15.0141H334.737V18.536C335.975 17.1272 337.341 16.0813 338.835 15.3983C340.329 14.7153 341.866 14.3738 343.446 14.3738C344.812 14.3738 346.028 14.7153 347.096 15.3983C348.205 16.0813 348.995 17.298 349.465 19.0482C350.788 17.426 352.218 16.2521 353.755 15.5264C355.334 14.758 356.978 14.3738 358.686 14.3738C359.881 14.3738 360.969 14.6726 361.951 15.2703C362.933 15.8252 363.723 16.743 364.321 18.0237C364.918 19.2617 365.217 20.9052 365.217 22.9543V52.0254H358.942V23.4025C358.942 21.6096 358.643 20.4143 358.045 19.8166C357.49 19.1763 356.722 18.8561 355.74 18.8561C354.801 18.8561 353.819 19.1336 352.795 19.6886C351.77 20.2008 350.831 20.9265 349.977 21.8657C349.977 22.0364 349.977 22.2072 349.977 22.378C349.977 22.5487 349.977 22.7408 349.977 22.9543V52.0254H343.702V23.4025C343.702 21.6096 343.403 20.4143 342.805 19.8166C342.25 19.1763 341.482 18.8561 340.5 18.8561C339.561 18.8561 338.579 19.1336 337.555 19.6886C336.573 20.2008 335.634 20.9265 334.737 21.8657V52.0254H328.398ZM372.497 52.0254V0.158387H382.934C386.392 0.158387 389.252 0.627965 391.515 1.56712C393.777 2.46359 395.442 3.93636 396.509 5.98542C397.619 7.9918 398.174 10.6385 398.174 13.9256C398.174 15.9319 397.961 17.7676 397.534 19.4324C397.107 21.0546 396.424 22.442 395.485 23.5946C394.546 24.7045 393.308 25.5156 391.771 26.0279L399.135 52.0254H392.155L385.367 27.6927H379.733V52.0254H372.497ZM379.733 22.506H382.486C384.535 22.506 386.2 22.2499 387.481 21.7376C388.761 21.2254 389.7 20.3502 390.298 19.1123C390.896 17.8743 391.194 16.1454 391.194 13.9256C391.194 10.8946 390.64 8.71751 389.53 7.39416C388.42 6.02811 386.221 5.34509 382.934 5.34509H379.733V22.506ZM415.307 52.5377C412.574 52.5377 410.419 51.9827 408.839 50.8728C407.26 49.7629 406.128 48.1834 405.445 46.1343C404.805 44.0853 404.485 41.6733 404.485 38.8986V28.141C404.485 25.3662 404.805 22.9543 405.445 20.9052C406.128 18.8561 407.26 17.2766 408.839 16.1667C410.419 15.0568 412.574 14.5019 415.307 14.5019C418.039 14.5019 420.173 15.0568 421.71 16.1667C423.289 17.2766 424.399 18.8561 425.04 20.9052C425.723 22.9543 426.064 25.3662 426.064 28.141V38.8986C426.064 41.6733 425.723 44.0853 425.04 46.1343C424.399 48.1834 423.289 49.7629 421.71 50.8728C420.173 51.9827 418.039 52.5377 415.307 52.5377ZM415.307 47.479C416.63 47.479 417.548 47.0948 418.06 46.3264C418.615 45.558 418.935 44.5548 419.02 43.3169C419.149 42.0362 419.213 40.7128 419.213 39.3468V27.7568C419.213 26.348 419.149 25.0247 419.02 23.7867C418.935 22.5487 418.615 21.5455 418.06 20.7771C417.548 19.966 416.63 19.5605 415.307 19.5605C413.983 19.5605 413.044 19.966 412.489 20.7771C411.934 21.5455 411.593 22.5487 411.465 23.7867C411.379 25.0247 411.336 26.348 411.336 27.7568V39.3468C411.336 40.7128 411.379 42.0362 411.465 43.3169C411.593 44.5548 411.934 45.558 412.489 46.3264C413.044 47.0948 413.983 47.479 415.307 47.479ZM445.582 52.5377C444.258 52.5377 443.063 52.2175 441.996 51.5772C440.971 50.8941 440.075 50.1471 439.307 49.336V52.0254H432.455V0.158387H439.307V17.9597C440.118 17.0205 441.078 16.2094 442.188 15.5264C443.341 14.8434 444.707 14.5019 446.286 14.5019C448.207 14.5019 449.723 15.0141 450.833 16.0387C451.985 17.0205 452.839 18.2798 453.394 19.8166C453.949 21.3107 454.312 22.8475 454.482 24.427C454.653 25.9638 454.739 27.2872 454.739 28.3971V37.3618C454.739 39.9658 454.482 42.4417 453.97 44.7896C453.458 47.0948 452.54 48.9731 451.217 50.4246C449.893 51.8333 448.015 52.5377 445.582 52.5377ZM444.173 47.1589C445.368 47.1589 446.222 46.732 446.734 45.8782C447.247 44.9817 447.567 43.7864 447.695 42.2923C447.823 40.7982 447.887 39.1547 447.887 37.3618V28.3971C447.887 26.8603 447.802 25.4516 447.631 24.1709C447.46 22.8475 447.097 21.8017 446.542 21.0333C445.987 20.2649 445.112 19.8807 443.917 19.8807C443.02 19.8807 442.167 20.0728 441.356 20.457C440.587 20.8412 439.904 21.268 439.307 21.7376V45.494C439.904 45.9636 440.609 46.3691 441.42 46.7106C442.273 47.0094 443.191 47.1589 444.173 47.1589ZM474.222 52.5377C472.898 52.5377 471.703 52.2175 470.636 51.5772C469.611 50.8941 468.715 50.1471 467.946 49.336V52.0254H461.095V0.158387H467.946V17.9597C468.758 17.0205 469.718 16.2094 470.828 15.5264C471.981 14.8434 473.347 14.5019 474.926 14.5019C476.847 14.5019 478.363 15.0141 479.472 16.0387C480.625 17.0205 481.479 18.2798 482.034 19.8166C482.589 21.3107 482.952 22.8475 483.122 24.427C483.293 25.9638 483.378 27.2872 483.378 28.3971V37.3618C483.378 39.9658 483.122 42.4417 482.61 44.7896C482.098 47.0948 481.18 48.9731 479.857 50.4246C478.533 51.8333 476.655 52.5377 474.222 52.5377ZM472.813 47.1589C474.008 47.1589 474.862 46.732 475.374 45.8782C475.887 44.9817 476.207 43.7864 476.335 42.2923C476.463 40.7982 476.527 39.1547 476.527 37.3618V28.3971C476.527 26.8603 476.442 25.4516 476.271 24.1709C476.1 22.8475 475.737 21.8017 475.182 21.0333C474.627 20.2649 473.752 19.8807 472.557 19.8807C471.66 19.8807 470.807 20.0728 469.996 20.457C469.227 20.8412 468.544 21.268 467.946 21.7376V45.494C468.544 45.9636 469.248 46.3691 470.06 46.7106C470.913 47.0094 471.831 47.1589 472.813 47.1589ZM490.055 52.0254V15.0141H496.906V52.0254H490.055ZM490.055 9.50726V2.33552H496.906V9.50726H490.055ZM509.042 52.0254L501.742 15.0141H508.658L513.204 44.7896L517.814 15.0141H524.474L517.43 52.0254H509.042ZM535.537 52.5377C534.085 52.5377 532.805 52.1321 531.695 51.321C530.585 50.4672 529.71 49.4 529.069 48.1194C528.429 46.796 528.109 45.4086 528.109 43.9572C528.109 41.652 528.493 39.7096 529.261 38.1302C530.03 36.5507 531.076 35.2273 532.399 34.1601C533.765 33.0502 535.323 32.0897 537.073 31.2786C538.866 30.4675 540.745 29.6778 542.708 28.9094V26.284C542.708 24.7899 542.623 23.5519 542.452 22.5701C542.281 21.5882 541.919 20.8625 541.364 20.3929C540.851 19.8807 540.062 19.6245 538.994 19.6245C538.055 19.6245 537.287 19.838 536.689 20.2649C536.134 20.6917 535.729 21.3107 535.473 22.1218C535.216 22.8902 535.088 23.808 535.088 24.8753V26.7322L528.301 26.4761C528.386 22.378 529.325 19.3684 531.118 17.4474C532.911 15.4837 535.686 14.5019 539.443 14.5019C543.114 14.5019 545.718 15.505 547.255 17.5114C548.792 19.5178 549.56 22.4206 549.56 26.22V43.1248C549.56 44.2774 549.581 45.3873 549.624 46.4545C549.709 47.5217 549.795 48.5249 549.88 49.4641C550.008 50.3605 550.115 51.2143 550.2 52.0254H543.925C543.797 51.3424 543.626 50.4886 543.413 49.4641C543.242 48.3968 543.114 47.4363 543.029 46.5826C542.602 48.034 541.769 49.4 540.531 50.6807C539.336 51.9187 537.671 52.5377 535.537 52.5377ZM538.226 46.6466C538.909 46.6466 539.549 46.4545 540.147 46.0703C540.745 45.6861 541.278 45.2592 541.748 44.7896C542.217 44.2774 542.538 43.8718 542.708 43.573V33.0715C541.641 33.6692 540.638 34.2668 539.699 34.8645C538.76 35.4621 537.927 36.1024 537.202 36.7855C536.518 37.4258 535.964 38.1728 535.537 39.0266C535.152 39.8377 534.96 40.7769 534.96 41.8441C534.96 43.3382 535.238 44.5121 535.793 45.3659C536.348 46.2197 537.159 46.6466 538.226 46.6466ZM556.141 52.0254V15.0141H562.993V18.664C564.231 17.5114 565.597 16.5296 567.091 15.7185C568.585 14.9074 570.229 14.5019 572.022 14.5019C573.516 14.5019 574.647 14.8861 575.415 15.6545C576.226 16.4229 576.781 17.3834 577.08 18.536C577.422 19.6886 577.593 20.8625 577.593 22.0578V52.0254H570.741V24.0428C570.741 22.7195 570.549 21.6949 570.165 20.9692C569.78 20.2435 568.991 19.8807 567.795 19.8807C567.027 19.8807 566.216 20.1154 565.362 20.585C564.551 21.0119 563.761 21.5455 562.993 22.1859V52.0254H556.141Z" fill="white"/>
</svg>
