<svg width="321" height="270" viewBox="0 0 321 270" fill="none" xmlns="http://www.w3.org/2000/svg">
<path fill-rule="evenodd" clip-rule="evenodd" d="M288.1 65.1268L292.155 81.142L310.529 76.4897L307.448 64.3231C311.12 59.6944 314.026 54.9954 316.165 50.2263C318.387 45.4363 319.76 40.597 320.283 35.7085C320.807 30.82 320.44 25.8928 319.183 20.9269C317.129 12.8158 313.271 7.14327 307.608 3.90927C302.028 0.654308 295.058 0.0851164 286.699 2.2017C278.422 4.29732 272.573 7.9801 269.152 13.25C265.792 18.4162 265.034 24.641 266.878 31.9245C267.402 33.9936 268.071 35.9381 268.884 37.7579C269.759 39.4739 270.779 41.2413 271.944 43.0601L289.125 34.2182C288.418 33.1642 287.773 32.1826 287.19 31.2732C286.67 30.2601 286.242 29.0914 285.906 27.7672C285.382 25.698 285.512 23.9479 286.294 22.5167C287.16 21.0646 288.585 20.0871 290.572 19.5841C292.724 19.0393 294.516 19.3341 295.948 20.4687C297.442 21.4996 298.577 23.5462 299.352 26.6085C300.442 30.9124 300.631 35.3121 299.92 39.8077C299.188 44.2205 297.782 48.5836 295.704 52.897C293.625 57.2104 291.091 61.287 288.1 65.1268ZM293.357 88.4998L298.229 107.743L317.969 102.745L313.097 83.5018L293.357 88.4998ZM22.2177 226.555L26.2727 242.57L44.6467 237.918L41.5662 225.752C45.2381 221.123 48.1437 216.424 50.2829 211.655C52.5049 206.865 53.8777 202.025 54.4014 197.137C54.9251 192.248 54.5583 187.321 53.3009 182.355C51.2472 174.244 47.3889 168.572 41.7261 165.338C36.1461 162.083 29.1764 161.513 20.817 163.63C12.5404 165.726 6.69134 169.408 3.26979 174.678C-0.0899486 179.845 -0.847744 186.069 0.996405 193.353C1.52031 195.422 2.18879 197.366 3.00185 199.186C3.87671 200.902 4.89669 202.67 6.06176 204.488L23.2429 195.647C22.5357 194.593 21.8908 193.611 21.3083 192.702C20.7875 191.688 20.3595 190.52 20.0242 189.196C19.5003 187.126 19.6296 185.376 20.4122 183.945C21.2775 182.493 22.7034 181.515 24.6898 181.012C26.8417 180.468 28.6338 180.763 30.066 181.897C31.56 182.928 32.6947 184.975 33.4701 188.037C34.5598 192.341 34.7491 196.74 34.0378 201.236C33.3056 205.649 31.9003 210.012 29.8219 214.325C27.7434 218.639 25.2087 222.715 22.2177 226.555ZM27.4752 249.928L32.3475 269.171L52.0872 264.173L47.2148 244.93L27.4752 249.928Z" fill="white"/>
</svg>
